<?xml version="1.0" encoding="UTF-8"?>
<svg width="24px" height="24px" viewBox="0 0 24 24" version="1.1" xmlns="http://www.w3.org/2000/svg" xmlns:xlink="http://www.w3.org/1999/xlink">
    <title>DA0038FD-159C-4E06-A9BE-4F80AE7A94AB</title>
    <defs>
        <filter color-interpolation-filters="auto" id="filter-1">
            <feColorMatrix in="SourceGraphic" type="matrix" values="0 0 0 0 0.000000 0 0 0 0 0.000000 0 0 0 0 0.000000 0 0 0 0.870000 0"></feColorMatrix>
        </filter>
    </defs>
    <g id="LS---Internal" stroke="none" stroke-width="1" fill="none" fill-rule="evenodd">
        <g id="sign-in-2-" transform="translate(-896.000000, -573.000000)">
            <rect fill="#F6F7F8" x="0" y="0" width="1440" height="1024"></rect>
            <g id="User-Name-&amp;-Pass" transform="translate(443.000000, 336.000000)">
                <rect id="Rectangle-Copy-3" stroke="#E6EAEE" fill="#FFFFFF" x="0" y="58" width="555" height="347"></rect>
                <g id="Form" transform="translate(70.000000, 142.000000)">
                    <g id="text-field-copy-4" transform="translate(0.000000, 72.000000)">
                        <g id="field" transform="translate(0.000000, 9.000000)">
                            <g filter="url(#filter-1)" font-family="Heebo-Regular, Heebo" font-size="15" font-weight="normal" id="Placeholder-2">
                                <g transform="translate(0.000000, 16.000000)">
                                    <text id="Placeholder" fill="#8F9BB3">
                                        <tspan x="0" y="12">72254327</tspan>
                                    </text>
                                </g>
                            </g>
                            <g id="Group" transform="translate(383.000000, 14.000000)">
                                <g id="visibility_off-24px" transform="translate(2.000000, 2.000000)">
                                    <path d="M0,0 L20,0 L20,20 L0,20 L0,0 Z M0,0 L20,0 L20,20 L0,20 L0,0 Z M0,0 L20,0 L20,20 L0,20 L0,0 Z M0,0 L20,0 L20,20 L0,20 L0,0 Z" id="Shape"></path>
                                    <path d="M10,5 C13.1583333,5 15.975,6.775 17.35,9.58333333 C16.8583333,10.6 16.1666667,11.475 15.3416667,12.1833333 L16.5166667,13.3583333 C17.675,12.3333333 18.5916667,11.05 19.1666667,9.58333333 C17.725,5.925 14.1666667,3.33333333 10,3.33333333 C8.94166667,3.33333333 7.925,3.5 6.96666667,3.80833333 L8.34166667,5.18333333 C8.88333333,5.075 9.43333333,5 10,5 Z M9.10833333,5.95 L10.8333333,7.675 C11.3083333,7.88333333 11.6916667,8.26666667 11.9,8.74166667 L13.625,10.4666667 C13.6916667,10.1833333 13.7416975,9.88333333 13.7416975,9.575 C13.75,7.50833333 12.0666667,5.83333333 10,5.83333333 C9.69166667,5.83333333 9.4,5.875 9.10833333,5.95 Z M1.675,3.225 L3.90833333,5.45833333 C2.55,6.525 1.475,7.94166667 0.833333333,9.58333333 C2.275,13.2416667 5.83333333,15.8333333 10,15.8333333 C11.2666667,15.8333333 12.4833333,15.5916667 13.6,15.15 L16.45,18 L17.625,16.825 L2.85,2.04166667 L1.675,3.225 Z M7.925,9.475 L10.1,11.65 C10.0666667,11.6583333 10.0333333,11.6666667 10,11.6666667 C8.85,11.6666667 7.91666667,10.7333333 7.91666667,9.58333333 C7.91666667,9.54166667 7.925,9.51666667 7.925,9.475 L7.925,9.475 Z M5.09166667,6.64166667 L6.55,8.1 C6.35833333,8.55833333 6.25,9.05833333 6.25,9.58333333 C6.25,11.65 7.93333333,13.3333333 10,13.3333333 C10.525,13.3333333 11.025,13.225 11.475,13.0333333 L12.2916667,13.85 C11.5583333,14.05 10.7916667,14.1666667 10,14.1666667 C6.84166667,14.1666667 4.025,12.3916667 2.65,9.58333333 C3.23333333,8.39166667 4.08333333,7.40833333 5.09166667,6.64166667 Z" id="Shape" fill="#000000" fill-rule="nonzero"></path>
                                </g>
                            </g>
                        </g>
                    </g>
                </g>
            </g>
        </g>
    </g>
</svg>